HIERARCHY
ROOT Hips
{
	OFFSET 0.000000 0.000000 0.000000
	CHANNELS 6 Xposition Yposition Zposition Zrotation Yrotation Xrotation 
	JOINT LeftUpLeg_virtual
	{
		OFFSET 0.000000 0.000000 0.000000
		CHANNELS 3 Zrotation Yrotation Xrotation
		JOINT LeftUpLeg
		{
			OFFSET 8.479694 -4.795517 -0.379053
			CHANNELS 3 Zrotation Yrotation Xrotation
			JOINT LeftLeg
			{
				OFFSET 0.485052 -32.551468 0.112863
				CHANNELS 3 Zrotation Yrotation Xrotation
				JOINT LeftFoot
				{
					OFFSET 0.438033 -32.635670 -3.012641
					CHANNELS 3 Zrotation Yrotation Xrotation
					JOINT LeftToeBase
					{
						OFFSET 0.970169 -13.225353 11.864223
						CHANNELS 3 Zrotation Yrotation Xrotation
						End Site
						{
							OFFSET 0.000000 0.000000 0.000000
						}
					}
				}
			}
		}
	}
	JOINT RightUpLeg_virtual
	{
		OFFSET 0.000000 0.000000 0.000000
		CHANNELS 3 Zrotation Yrotation Xrotation
		JOINT RightUpLeg
		{
			OFFSET -8.479694 -4.795517 -0.379053
			CHANNELS 3 Zrotation Yrotation Xrotation
			JOINT RightLeg
			{
				OFFSET -0.484100 -32.551483 0.112903
				CHANNELS 3 Zrotation Yrotation Xrotation
				JOINT RightFoot
				{
					OFFSET -0.438985 -32.635651 -3.012681
					CHANNELS 3 Zrotation Yrotation Xrotation
					JOINT RightToeBase
					{
						OFFSET -0.970169 -13.225354 11.864223
						CHANNELS 3 Zrotation Yrotation Xrotation
						End Site
						{
							OFFSET 0.000000 0.000000 0.000000
						}
					}
				}
			}
		}
	}
	JOINT Spine_virtual
	{
		OFFSET 0.000000 0.000000 0.000000
		CHANNELS 3 Zrotation Yrotation Xrotation
		JOINT Spine
		{
			OFFSET 0.000000 7.722015 1.166203
			CHANNELS 3 Zrotation Yrotation Xrotation
			JOINT Spine1
			{
				OFFSET 0.000000 12.024086 0.248766
				CHANNELS 3 Zrotation Yrotation Xrotation
				JOINT Spine2
				{
					OFFSET -0.000000 11.503036 -0.491240
					CHANNELS 3 Zrotation Yrotation Xrotation
					JOINT Neck_virtual
					{
						OFFSET 0.000000 0.000000 0.000000
						CHANNELS 3 Zrotation Yrotation Xrotation
						JOINT Neck
						{
							OFFSET 0.000000 18.430687 -3.123054
							CHANNELS 3 Zrotation Yrotation Xrotation
							JOINT Head
							{
								OFFSET -0.000000 9.051071 1.034021
								CHANNELS 3 Zrotation Yrotation Xrotation
								End Site
								{
									OFFSET 0.000000 0.000000 0.000000
								}
							}
						}
					}
					JOINT LeftShoulder_virtual
					{
						OFFSET 0.000000 0.000000 0.000000
						CHANNELS 3 Zrotation Yrotation Xrotation
						JOINT LeftShoulder
						{
							OFFSET 6.197824 13.665230 -4.064723
							CHANNELS 3 Zrotation Yrotation Xrotation
							JOINT LeftArm
							{
								OFFSET 7.778132 -0.187073 -1.709282
								CHANNELS 3 Zrotation Yrotation Xrotation
								JOINT LeftForeArm
								{
									OFFSET 21.954697 0.000000 -2.041093
									CHANNELS 3 Zrotation Yrotation Xrotation
									JOINT LeftHand
									{
										OFFSET 22.992908 0.000000 -0.870901
										CHANNELS 3 Zrotation Yrotation Xrotation
										End Site
										{
											OFFSET 0.000000 0.000000 0.000000
										}
									}
								}
							}
						}
					}
					JOINT RightShoulder_virtual
					{
						OFFSET 0.000000 0.000000 0.000000
						CHANNELS 3 Zrotation Yrotation Xrotation
						JOINT RightShoulder
						{
							OFFSET -6.197824 13.665230 -4.064723
							CHANNELS 3 Zrotation Yrotation Xrotation
							JOINT RightArm
							{
								OFFSET -7.778132 -0.187073 -1.709282
								CHANNELS 3 Zrotation Yrotation Xrotation
								JOINT RightForeArm
								{
									OFFSET -21.954697 0.000000 -2.041093
									CHANNELS 3 Zrotation Yrotation Xrotation
									JOINT RightHand
									{
										OFFSET -22.992908 0.000000 -0.870901
										CHANNELS 3 Zrotation Yrotation Xrotation
										End Site
										{
											OFFSET 0.000000 0.000000 0.000000
										}
									}
								}
							}
						}
					}
				}
			}
		}
	}
}
MOTION
Frames: 13
Frame Time: 0.033333
19.172256 78.330086 -109.754715 0.123372 -76.505017 -0.120993 -0.762564 -3.328485 12.299388 0.007866 0.495899 -37.845194 9.069389 8.653625 24.519216 -7.127555 -1.775628 -1.808823 0.000000 0.000000 0.000000 3.219631 -3.639898 11.370259 -6.557380 7.654014 -39.305423 0.971356 8.429666 33.929101 13.105642 8.061875 -7.834545 0.000000 0.000000 0.000000 4.060864 -0.246031 0.897419 -2.224152 0.832955 -5.648139 -2.516402 -1.747500 9.575346 -0.024646 -0.039469 0.023189 -2.853877 -0.128323 10.936299 -9.676741 -4.120883 -0.917996 0.000000 0.000000 0.000000 -0.569211 0.415389 8.087223 -6.356028 -3.908566 2.817213 -61.525845 -3.114540 3.367408 0.551201 -7.416681 3.141249 0.000000 0.000000 0.000000 -5.575199 1.858239 7.089872 35.482273 0.782451 9.123734 38.567080 12.047276 1.535350 -6.336556 20.393341 1.292408 0.000000 0.000000 0.000000 
19.027166 78.329819 -109.756073 0.171398 -76.360470 -0.199390 -0.809628 -3.462904 12.271629 -0.048461 0.535242 -37.859387 8.972043 8.479125 24.688211 -6.961104 -1.603458 -1.141604 0.000000 0.000000 0.000000 3.100310 -3.316684 11.478766 -7.047904 7.755988 -38.689962 1.407511 8.586728 33.074440 13.691080 8.532062 -7.565959 0.000000 0.000000 0.000000 4.063700 -0.217016 0.830663 -2.243258 0.699957 -5.640926 -2.482102 -1.795572 9.559297 0.048814 -0.052493 0.010142 -2.944607 -0.310174 10.928915 -9.647428 -4.095123 -1.048979 0.000000 0.000000 0.000000 -0.646681 0.365712 8.038402 -6.400362 -4.213535 2.953543 -61.453958 -3.437304 5.680911 0.605632 -7.692367 3.281742 0.000000 0.000000 0.000000 -5.672114 1.831209 7.087878 35.466843 0.660456 9.139956 38.783662 11.643007 1.891159 -6.319810 20.270205 1.117246 0.000000 0.000000 0.000000 
18.826496 78.326782 -109.799767 0.448933 -76.413998 -0.407185 -0.817643 -3.363120 12.259558 0.022690 0.101961 -37.851819 9.113961 8.295712 24.921748 -6.807050 -1.506677 -1.358301 0.000000 0.000000 0.000000 2.974359 -3.286767 11.434997 -6.957528 7.516960 -38.323607 1.691277 8.492756 32.700193 13.743081 8.570167 -7.773812 0.000000 0.000000 0.000000 3.982541 -0.027248 0.669175 -2.288843 0.640785 -5.737011 -2.515086 -1.811099 9.491023 -0.025156 -0.063343 0.027708 -2.780813 -0.227920 10.887869 -9.454369 -4.055756 -1.064145 0.000000 0.000000 0.000000 -0.534767 0.332523 7.992318 -6.382732 -4.834921 3.145536 -60.450944 -4.156984 10.723243 0.708388 -8.656770 3.489994 0.000000 0.000000 0.000000 -5.548729 1.821780 7.044974 35.358096 0.722080 9.126637 39.253726 10.678961 2.478969 -6.331993 19.824921 0.923027 0.000000 0.000000 0.000000 
18.576662 78.317139 -109.872650 0.979530 -76.619764 -0.961875 -0.952149 -3.006591 12.202707 0.072403 -0.218185 -37.738325 9.422219 7.926065 25.228782 -6.828627 -1.597516 -1.591966 0.000000 0.000000 0.000000 2.810661 -3.434778 11.415594 -6.585595 7.179106 -38.021908 1.870269 8.837943 32.732937 13.657010 8.687709 -8.276497 0.000000 0.000000 0.000000 3.806816 0.304917 0.483315 -2.359450 0.623943 -5.795099 -2.501851 -1.795464 9.427714 0.007716 -0.011186 0.023925 -2.780590 -0.292233 10.857813 -9.182008 -4.057618 -1.042193 0.000000 0.000000 0.000000 -0.535954 0.301074 7.919347 -6.273599 -5.573601 3.390533 -58.577772 -5.413068 17.697905 0.731524 -10.275397 3.856269 0.000000 0.000000 0.000000 -5.581538 1.776725 7.103856 35.189312 0.943723 9.188707 39.868292 9.419971 2.806452 -6.194471 19.126292 0.743772 0.000000 0.000000 0.000000 
18.306511 78.312454 -109.995857 1.038760 -76.685853 -1.025947 -1.063577 -2.832288 12.139825 0.589511 -0.999263 -37.653139 9.693007 8.022195 25.636850 -6.828298 -1.663549 -1.803326 0.000000 0.000000 0.000000 2.758206 -3.222376 11.173686 -6.146451 6.795703 -37.611676 2.009367 8.881254 33.224205 13.414922 8.776569 -9.046983 0.000000 0.000000 0.000000 3.637776 0.679098 0.303126 -2.402471 0.524884 -5.954394 -2.445015 -1.854267 9.376917 0.018174 0.044162 0.024255 -2.700038 -0.368283 10.777455 -8.778315 -3.934426 -0.917528 0.000000 0.000000 0.000000 -0.486712 0.227883 7.792318 -6.095572 -6.354705 3.660068 -56.090009 -7.529577 25.216893 0.664232 -12.533009 4.456251 0.000000 0.000000 0.000000 -5.542636 1.728138 7.084451 35.078574 1.243457 9.319750 40.678339 7.917440 2.999633 -6.068379 18.233996 0.434206 0.000000 0.000000 0.000000 
18.008619 78.320831 -110.153183 1.175946 -76.374383 -1.279556 -1.188264 -2.571621 12.194177 0.990654 -1.583221 -37.530841 9.769337 7.866366 25.914228 -6.858940 -1.666511 -1.968391 0.000000 0.000000 0.000000 2.675232 -2.946166 10.961137 -5.710853 6.273185 -37.154016 2.049102 8.882610 33.771044 12.964940 8.712255 -10.025669 0.000000 0.000000 0.000000 3.441294 1.047358 0.210664 -2.491520 0.391155 -6.047281 -2.420040 -1.972614 9.310466 0.022522 0.052222 -0.040244 -2.599251 -0.597477 10.777109 -8.337060 -3.564273 -0.785821 0.000000 0.000000 0.000000 -0.453312 0.028545 7.735281 -5.607074 -7.013658 3.816317 -53.599213 -10.404352 31.847355 0.571226 -14.981294 5.008724 0.000000 0.000000 0.000000 -5.508108 1.492759 7.211951 34.902058 1.672075 9.386495 41.516697 6.122544 3.170716 -5.952608 17.309134 0.014669 0.000000 0.000000 0.000000 
17.673273 78.327164 -110.328423 1.378625 -75.986852 -1.588399 -1.307008 -2.243875 12.285994 1.445240 -2.103637 -37.503223 9.686165 7.782358 26.178073 -7.025763 -1.698760 -2.165826 0.000000 0.000000 0.000000 2.651305 -2.674429 10.889672 -5.389489 5.831400 -36.727782 2.076107 8.761137 34.370960 12.488323 8.587667 -10.935016 0.000000 0.000000 0.000000 3.245902 1.432572 0.251449 -2.635855 0.232365 -6.330542 -2.358024 -2.107519 9.283355 0.058495 0.089429 -0.022320 -2.583379 -0.855200 10.755011 -7.899719 -3.306649 -0.360034 0.000000 0.000000 0.000000 -0.494275 -0.151540 7.577847 -5.209839 -7.306778 3.942946 -51.068505 -13.773448 36.532148 0.352453 -17.290815 5.428217 0.000000 0.000000 0.000000 -5.536043 1.350522 7.150949 34.780703 1.943308 9.473584 42.470058 4.134557 3.352777 -5.781816 16.601652 -0.373168 0.000000 0.000000 0.000000 
17.310242 78.330124 -110.480438 1.186707 -75.468973 -1.491088 -1.302685 -1.990050 12.356904 1.830644 -2.436721 -37.506140 9.432593 7.762999 26.465202 -7.385371 -1.812014 -2.433174 0.000000 0.000000 0.000000 2.686312 -2.447276 10.978493 -5.079389 5.485110 -36.374500 2.060950 8.615223 34.901549 12.006222 8.394022 -11.662579 0.000000 0.000000 0.000000 3.168705 1.694091 0.357185 -2.698190 0.164919 -6.615320 -2.381546 -2.270636 9.205101 0.043856 0.098072 -0.082064 -2.587922 -1.095593 10.671820 -7.548069 -2.947824 -0.028099 0.000000 0.000000 0.000000 -0.557085 -0.321708 7.442590 -4.806902 -7.255175 3.965747 -48.672474 -17.055124 38.704155 0.210163 -18.764847 5.639021 0.000000 0.000000 0.000000 -5.585959 1.145144 7.142649 34.781799 2.248833 9.500550 43.360746 2.136044 3.900357 -5.512014 16.094309 -0.519093 0.000000 0.000000 0.000000 
16.881830 78.323853 -110.621346 0.971576 -74.913761 -1.312957 -1.132963 -1.547126 12.305424 1.883017 -2.465157 -37.456180 9.176844 7.695681 26.859564 -7.867185 -1.978289 -2.715269 0.000000 0.000000 0.000000 2.819831 -2.291045 11.074653 -4.819219 5.176795 -36.120827 2.099818 8.621090 35.261019 11.658187 8.178382 -12.182270 0.000000 0.000000 0.000000 3.146462 1.857872 0.433751 -2.723948 0.098959 -6.926059 -2.417214 -2.418307 9.170320 0.004957 0.134422 -0.080612 -2.551957 -1.117369 10.479034 -7.298184 -2.704149 0.343208 0.000000 0.000000 0.000000 -0.565384 -0.580869 7.333692 -4.568975 -6.798352 3.904612 -46.654481 -19.724009 38.563818 0.075474 -19.095189 5.610910 0.000000 0.000000 0.000000 -5.593380 0.987767 7.014085 34.838456 2.489020 9.481432 44.117944 0.285161 4.829864 -5.329147 15.740384 -0.663648 0.000000 0.000000 0.000000 
16.387142 78.284271 -110.787468 1.054442 -74.408859 -1.368689 -1.210598 -1.297890 12.219659 2.362151 -2.819261 -37.351668 8.941923 7.663345 27.321132 -8.266686 -1.989315 -3.348972 0.000000 0.000000 0.000000 2.692281 -2.184233 11.148825 -4.458043 4.890187 -35.936111 1.924847 8.242455 35.456530 11.560917 8.256742 -12.514104 0.000000 0.000000 0.000000 3.087819 1.870685 0.493095 -2.700869 0.107261 -7.200046 -2.435800 -2.589155 9.076593 -0.048002 0.108791 -0.087394 -2.546492 -1.308433 10.413341 -7.239567 -2.155511 0.690971 0.000000 0.000000 0.000000 -0.644947 -0.637177 7.200060 -4.433679 -6.260331 3.787124 -45.468211 -21.491277 36.721692 0.003188 -18.455057 5.288341 0.000000 0.000000 0.000000 -5.620144 0.839195 6.918139 34.905340 2.752034 9.346867 44.732968 -1.307617 5.858407 -5.006719 15.399734 -0.456815 0.000000 0.000000 0.000000 
15.859740 78.183617 -111.004326 0.961591 -73.886282 -1.200737 -1.171153 -0.932075 12.137431 2.694837 -3.148386 -37.275556 8.837058 7.533279 27.831819 -8.779638 -2.207976 -4.219574 0.000000 0.000000 0.000000 2.569922 -2.115803 11.143286 -4.000348 4.543103 -35.816822 1.782066 7.784059 35.643274 11.593313 8.479653 -12.817997 0.000000 0.000000 0.000000 3.192586 1.796753 0.477696 -2.665181 0.163454 -7.429435 -2.430204 -2.689507 8.944362 -0.010243 0.116600 -0.066570 -2.718052 -1.472655 10.332230 -7.254078 -1.690542 0.986890 0.000000 0.000000 0.000000 -0.838904 -0.715286 7.112640 -4.545392 -5.713584 3.683455 -45.126828 -22.310922 34.314993 -0.154150 -17.266964 4.944412 0.000000 0.000000 0.000000 -5.779762 0.762923 6.750254 35.039885 2.799960 9.147353 45.207359 -2.688195 6.525102 -4.709614 14.986393 -0.525332 0.000000 0.000000 0.000000 
15.326660 78.037468 -111.260674 0.839080 -73.260616 -0.904957 -0.935758 -0.534108 12.054198 3.070790 -4.041368 -37.389439 8.675032 7.196620 28.330091 -8.834634 -2.163791 -4.994072 0.000000 0.000000 0.000000 2.398741 -2.144156 11.129923 -3.419014 4.087821 -35.771408 1.666860 7.260848 35.981191 11.724899 8.767382 -13.135674 0.000000 0.000000 0.000000 3.369940 1.673863 0.419958 -2.554410 0.195837 -7.606168 -2.578191 -2.752069 8.780747 0.041279 0.143798 -0.019406 -2.794597 -1.648150 10.226006 -7.438978 -1.305783 1.064630 0.000000 0.000000 0.000000 -0.940564 -0.750757 7.040300 -4.606843 -5.212390 3.535334 -45.539747 -22.199242 31.524608 -0.389863 -15.996394 4.519917 0.000000 0.000000 0.000000 -5.884579 0.827571 6.501646 35.162558 2.574984 8.881531 45.558448 -3.763537 6.212859 -4.479018 14.620491 -0.243655 0.000000 0.000000 0.000000 
14.859858 77.880417 -111.565147 0.566546 -72.446061 -0.479099 -1.148935 -1.034277 12.129427 3.679301 -3.736245 -37.712452 8.708535 7.028260 29.018810 -9.378310 -2.682710 -5.887102 0.000000 0.000000 0.000000 2.203393 -2.259459 11.239273 -2.745761 3.651300 -35.813144 1.551922 6.864042 36.441784 11.714864 8.874808 -13.477430 0.000000 0.000000 0.000000 3.589512 1.482972 0.494518 -2.400092 0.269348 -7.674063 -2.618358 -2.825711 8.641374 0.044375 0.066813 0.053596 -2.839013 -1.528910 9.941141 -7.776334 -0.931021 0.902205 0.000000 0.000000 0.000000 -1.039909 -0.762146 6.766980 -4.488236 -4.936767 3.648002 -46.552496 -21.427907 29.030380 -0.473760 -14.922423 3.890853 0.000000 0.000000 0.000000 -5.858785 0.620063 6.230132 35.071269 2.329586 8.501870 45.809703 -4.393782 4.808192 -4.216433 14.395833 -0.170732 0.000000 0.000000 0.000000 
